<svg xmlns="http://www.w3.org/2000/svg" viewBox="0 0 388.392 368.418"><defs><style>.cls-1{fill:#0f1328;}</style></defs><g id="Layer_2" data-name="Layer 2"><g id="Back"><path class="cls-1" d="M167.2,283.851a118.812,118.812,0,0,1-22.56-19.574,120.665,120.665,0,0,1-25.829-46.49,105.647,105.647,0,0,1-23.944-17.154L1.313,274.514c-3.139,2.8-.49,11.43,6.249,22.834,5.695,9.636,14.311,21.255,24.822,33.014,22.943,25.671,46.241,42.277,52.023,37.116Z"/><path class="cls-1" d="M352.978,313.051a84.513,84.513,0,0,0,16.381-105.972c-.143-.242-.287-.483-.433-.725,20.089-18.3,25.489-49.285,12.154-71.851a56.59,56.59,0,0,0-6.55-8.943A55.97,55.97,0,0,0,353.4,111,61.814,61.814,0,0,0,269.507,26.56c-27.853-32.811-77.056-35.2-108.284-7.286a75.376,75.376,0,0,0-15.359,19.654c-.9-1.18-1.605-2.453-2.617-3.588a51.816,51.816,0,1,0-57.791,82.47,67.281,67.281,0,0,0,46.933,91.71,84.37,84.37,0,0,0,11.334,36.3,80.976,80.976,0,0,0,9.374,12.806c17.293,19.361,42.025,28.5,67.5,27.606,1.357,2.847,2.824,5.657,4.444,8.4a74,74,0,0,0,8.488,11.728A84.589,84.589,0,0,0,352.978,313.051Z"/></g></g></svg>