<svg xmlns="http://www.w3.org/2000/svg" viewBox="0 0 421.753 346.596"><defs><style>.cls-1{fill:#0f1328;}</style></defs><g id="Layer_2" data-name="Layer 2"><g id="Back"><path class="cls-1" d="M294.221,0C238.561,0,191.238,39.108,173.83,82.443c31.577,10.784,57.759,33.612,73.19,59.839a119.27,119.27,0,0,1,15.031-.963c39.663,0,75.1,19.859,98.487,46.954,36.708-11.906,61.215-35.331,61.215-71.082C421.753,62.621,364.655,0,294.221,0Z"/><path class="cls-1" d="M166.843,85.507a121.411,121.411,0,0,0-39.311-6.613C57.1,78.894,0,141.515,0,196.085s57.1,80.426,127.532,80.426c.517,0,1.03-.006,1.546-.009a70.738,70.738,0,0,1-1.546-14.928c0-33.126,21.044-69.217,53.336-92.468a129.561,129.561,0,0,1,59.165-23.76C224.6,119.118,198.419,96.291,166.843,85.507Z"/><path class="cls-1" d="M359.678,195.933c-23.39-27.1-58.823-46.954-98.486-46.954a119.059,119.059,0,0,0-15.031.963A129.55,129.55,0,0,0,187,173.7C154.7,196.953,133.66,233.043,133.66,266.17a70.789,70.789,0,0,0,1.545,14.927c9.549,44.368,62.317,65.5,125.987,65.5,70.433,0,127.531-25.855,127.531-80.426C388.723,242.33,377.825,216.954,359.678,195.933Z"/></g></g></svg>