<svg xmlns="http://www.w3.org/2000/svg" viewBox="0 0 585.34 266.378"><defs><style>.cls-1{fill:#0f1328;}.cls-2{fill:#fff;}</style></defs><g id="Layer_2" data-name="Layer 2"><g id="Back"><path class="cls-1" d="M0,266.378S39.447,222.41,44.043,163.011c0,0-4.6-13.442,0-20.718a24.56,24.56,0,0,1,0-19.724S46.34,76.037,0,17.059c0,0,31.6-.958,62.426,71.617,0,0,15.319,27,46.531,15.51,0,0,45-20.681,82.341-32.361,0,0-5.936-27.958-33.7-42.128,0,0,36.191-6.128,60.319,33.894,0,0,27.766-8.809,93.638-19.149,0,0,39.064-14.586,57.83-44.442,0,0,20.681,14,33.319,43.293,0,0,60.128,6.127,103.787,27.957s67.405,44.043,74.681,55.724c0,0,9.383,5.17,0,8.808,0,0,1.149,1.149-10.915,5.553l-.574,1.149s10.149,3.447,13.4,6.7c0,0,4.213,2.49.192,5.936,0,0-27.766,38.681-88.277,62.618,0,0-22.021,10.531-60.319,17.808,0,0-4.4,16.468-11.49,22.787a56.959,56.959,0,0,0,1.341-20.3s-62.426,11.3-123.319.383-72.383-14.744-88.468-19.532c0,0-15.511,15.894-36.958,20.49,0,0,15.894-13.213,19.724-25.277,0,0-73.341-26.425-88.66-34.659,0,0-22.979-7.851-40.979,10.532,0,0-15.127,32.744-22.021,40.6S25.851,263.122,0,266.378Z"/><circle class="cls-2" cx="499.245" cy="114.665" r="14.5"/><circle class="cls-1" cx="502.215" cy="115.997" r="4.848"/></g></g></svg>