<svg xmlns="http://www.w3.org/2000/svg" viewBox="0 0 556.687 368.141"><defs><style>.cls-1{fill:#0f1328;}</style></defs><g id="Layer_2" data-name="Layer 2"><g id="Back"><path class="cls-1" d="M.669,239.351s60.894-145.21,177.7-163.945S334.627,94.2,334.627,94.2s-131.745,57.064-89.234,152.043,135.191,37.532,135.191,37.532,56.3-45.958,66.255-72c0,0,21.064,38.681,24.128,68.17s-22.979,71.234-67.4,85.021-337.4-21.83-337.4-21.83S-7.756,318.628.669,239.351Z"/><path class="cls-1" d="M265.691,186.244s-20.681,58.852,31.021,82.6,92.681-18.383,117.957-51.32,39.447-72.383,22.979-97.276-78.511-13.4-105.7,4.213S271.818,169.52,265.691,186.244Z"/><path class="cls-1" d="M451.424,99.376a56.779,56.779,0,0,1,3.694,4.651,6.49,6.49,0,0,0,9.53,1.142l56.4-48.631a6.43,6.43,0,0,1,8.21-.231A11.8,11.8,0,0,1,531.1,58.2c4.213,5.362,16.851,7.66,20.681,1.915,3.463-5.195,7.867-9.764,2.161-19.09a6.528,6.528,0,0,0-5.56-3.123H538.3a6.5,6.5,0,0,1-6.466-7.17l1.218-11.778a6.45,6.45,0,0,0-2.522-5.838c-4.67-3.493-14.392-7.857-24.1,5.708a6.449,6.449,0,0,0-1.22,3.412,20.228,20.228,0,0,0,2.3,10.384,6.575,6.575,0,0,1-1.284,7.965l-54.3,49.719A6.488,6.488,0,0,0,451.424,99.376Z"/><path class="cls-1" d="M379.306,83.2c6.834-1.236,17.119-3.381,23.129-2.6a2.414,2.414,0,0,0,2.01-.669L439.218,45.91a2.386,2.386,0,0,1,.968-.582c1.324-.408,4.563-.814,7.8,3.309C452.2,54,464.839,56.3,468.669,50.552c3.363-5.044,7.612-9.5,2.635-18.287a7.718,7.718,0,0,0-6.706-3.926h-9.51a6.4,6.4,0,0,1-6.369-7.062l1.158-11.2a7.7,7.7,0,0,0-3.4-7.2c-5.083-3.39-14.536-6.487-23.861,7.4a2.445,2.445,0,0,0-.388,1.027,20.058,20.058,0,0,0,3.751,14.256,2.459,2.459,0,0,1-.175,3.177l-48.68,50.373A2.433,2.433,0,0,0,379.306,83.2Z"/></g></g></svg>